<mxfile host="app.diagrams.net" modified="2023-10-17T15:08:35.509Z" agent="Mozilla/5.0 (Windows NT 10.0; Win64; x64) AppleWebKit/537.36 (KHTML, like Gecko) Chrome/117.0.0.0 Safari/537.36" etag="Uxe6W4_DmNCvluyFR5Sy" version="22.0.4" type="github">
  <diagram id="C5RBs43oDa-KdzZeNtuy" name="Page-1">
    <mxGraphModel dx="2261" dy="750" grid="1" gridSize="10" guides="1" tooltips="1" connect="1" arrows="1" fold="1" page="1" pageScale="1" pageWidth="827" pageHeight="1169" math="0" shadow="0">
      <root>
        <mxCell id="WIyWlLk6GJQsqaUBKTNV-0" />
        <mxCell id="WIyWlLk6GJQsqaUBKTNV-1" parent="WIyWlLk6GJQsqaUBKTNV-0" />
        <mxCell id="Fx_bJ2mfmY8YGPZaH9oz-4" value="&amp;lt;&amp;lt;&amp;nbsp;abstract&amp;nbsp;&amp;gt;&amp;gt;&lt;br&gt;&lt;font style=&quot;border-color: var(--border-color); font-weight: 700;&quot; color=&quot;#9933ff&quot;&gt;State&lt;br&gt;&lt;/font&gt;" style="swimlane;fontStyle=0;childLayout=stackLayout;horizontal=1;startSize=30;horizontalStack=0;resizeParent=1;resizeParentMax=0;resizeLast=0;collapsible=1;marginBottom=0;whiteSpace=wrap;html=1;" parent="WIyWlLk6GJQsqaUBKTNV-1" vertex="1">
          <mxGeometry x="-670" y="80" width="360" height="190" as="geometry">
            <mxRectangle x="-670" y="80" width="120" height="40" as="alternateBounds" />
          </mxGeometry>
        </mxCell>
        <mxCell id="Fx_bJ2mfmY8YGPZaH9oz-5" value="(유한) 상태 기계가 가질 수 있는 각 상태" style="text;strokeColor=none;fillColor=none;align=left;verticalAlign=middle;spacingLeft=4;spacingRight=4;overflow=hidden;points=[[0,0.5],[1,0.5]];portConstraint=eastwest;rotatable=0;whiteSpace=wrap;html=1;" parent="Fx_bJ2mfmY8YGPZaH9oz-4" vertex="1">
          <mxGeometry y="30" width="360" height="30" as="geometry" />
        </mxCell>
        <mxCell id="Fx_bJ2mfmY8YGPZaH9oz-6" value="일종의 분류, 개념으로서의 클래스(abstract)이기 때문에 MonoBehavior를 상속받을 필요 없음" style="text;strokeColor=none;fillColor=none;align=left;verticalAlign=middle;spacingLeft=4;spacingRight=4;overflow=hidden;points=[[0,0.5],[1,0.5]];portConstraint=eastwest;rotatable=0;whiteSpace=wrap;html=1;" parent="Fx_bJ2mfmY8YGPZaH9oz-4" vertex="1">
          <mxGeometry y="60" width="360" height="50" as="geometry" />
        </mxCell>
        <mxCell id="5cgWNR7Fg0BM9qmfLUpP-30" value="" style="line;strokeWidth=1;fillColor=none;align=left;verticalAlign=middle;spacingTop=-1;spacingLeft=3;spacingRight=3;rotatable=0;labelPosition=right;points=[];portConstraint=eastwest;strokeColor=inherit;" vertex="1" parent="Fx_bJ2mfmY8YGPZaH9oz-4">
          <mxGeometry y="110" width="360" height="8" as="geometry" />
        </mxCell>
        <mxCell id="5cgWNR7Fg0BM9qmfLUpP-32" value="+ &lt;b&gt;Enter&lt;/b&gt;() : void" style="text;strokeColor=none;fillColor=none;align=left;verticalAlign=middle;spacingLeft=4;spacingRight=4;overflow=hidden;points=[[0,0.5],[1,0.5]];portConstraint=eastwest;rotatable=0;whiteSpace=wrap;html=1;" vertex="1" parent="Fx_bJ2mfmY8YGPZaH9oz-4">
          <mxGeometry y="118" width="360" height="22" as="geometry" />
        </mxCell>
        <mxCell id="5cgWNR7Fg0BM9qmfLUpP-34" value="+ &lt;b&gt;Exit&lt;/b&gt;() : void&amp;nbsp;" style="text;strokeColor=none;fillColor=none;align=left;verticalAlign=middle;spacingLeft=4;spacingRight=4;overflow=hidden;points=[[0,0.5],[1,0.5]];portConstraint=eastwest;rotatable=0;whiteSpace=wrap;html=1;" vertex="1" parent="Fx_bJ2mfmY8YGPZaH9oz-4">
          <mxGeometry y="140" width="360" height="30" as="geometry" />
        </mxCell>
        <mxCell id="5cgWNR7Fg0BM9qmfLUpP-33" value="+ &lt;b&gt;Tick&lt;/b&gt;(float deltatime) : void" style="text;strokeColor=none;fillColor=none;align=left;verticalAlign=middle;spacingLeft=4;spacingRight=4;overflow=hidden;points=[[0,0.5],[1,0.5]];portConstraint=eastwest;rotatable=0;whiteSpace=wrap;html=1;" vertex="1" parent="Fx_bJ2mfmY8YGPZaH9oz-4">
          <mxGeometry y="170" width="360" height="20" as="geometry" />
        </mxCell>
        <mxCell id="Fx_bJ2mfmY8YGPZaH9oz-20" value="&lt;font style=&quot;border-color: var(--border-color);&quot;&gt;&lt;b&gt;EnemyIdleState&lt;/b&gt;&amp;nbsp;&lt;br&gt;&lt;/font&gt;" style="swimlane;fontStyle=0;childLayout=stackLayout;horizontal=1;startSize=30;horizontalStack=0;resizeParent=1;resizeParentMax=0;resizeLast=0;collapsible=1;marginBottom=0;whiteSpace=wrap;html=1;" parent="WIyWlLk6GJQsqaUBKTNV-1" vertex="1">
          <mxGeometry x="-723.5" y="570" width="177" height="60" as="geometry" />
        </mxCell>
        <mxCell id="Fx_bJ2mfmY8YGPZaH9oz-21" value="적의 Idle 상태" style="text;strokeColor=none;fillColor=none;align=left;verticalAlign=middle;spacingLeft=4;spacingRight=4;overflow=hidden;points=[[0,0.5],[1,0.5]];portConstraint=eastwest;rotatable=0;whiteSpace=wrap;html=1;" parent="Fx_bJ2mfmY8YGPZaH9oz-20" vertex="1">
          <mxGeometry y="30" width="177" height="30" as="geometry" />
        </mxCell>
        <mxCell id="Fx_bJ2mfmY8YGPZaH9oz-22" value="&lt;font style=&quot;border-color: var(--border-color);&quot;&gt;&lt;b&gt;EnemyStateMachine&lt;/b&gt;&lt;br&gt;&lt;/font&gt;" style="swimlane;fontStyle=0;childLayout=stackLayout;horizontal=1;startSize=30;horizontalStack=0;resizeParent=1;resizeParentMax=0;resizeLast=0;collapsible=1;marginBottom=0;whiteSpace=wrap;html=1;" parent="WIyWlLk6GJQsqaUBKTNV-1" vertex="1">
          <mxGeometry x="280" y="350" width="210" height="60" as="geometry" />
        </mxCell>
        <mxCell id="Fx_bJ2mfmY8YGPZaH9oz-23" value="적의 (유한) 상태 기계" style="text;strokeColor=none;fillColor=none;align=left;verticalAlign=middle;spacingLeft=4;spacingRight=4;overflow=hidden;points=[[0,0.5],[1,0.5]];portConstraint=eastwest;rotatable=0;whiteSpace=wrap;html=1;" parent="Fx_bJ2mfmY8YGPZaH9oz-22" vertex="1">
          <mxGeometry y="30" width="210" height="30" as="geometry" />
        </mxCell>
        <mxCell id="Fx_bJ2mfmY8YGPZaH9oz-28" value="&lt;font style=&quot;border-color: var(--border-color);&quot;&gt;&lt;b&gt;EnemyBaseState&lt;/b&gt;&lt;br&gt;&lt;/font&gt;" style="swimlane;fontStyle=0;childLayout=stackLayout;horizontal=1;startSize=30;horizontalStack=0;resizeParent=1;resizeParentMax=0;resizeLast=0;collapsible=1;marginBottom=0;whiteSpace=wrap;html=1;" parent="WIyWlLk6GJQsqaUBKTNV-1" vertex="1">
          <mxGeometry x="-750" y="350" width="230" height="148" as="geometry" />
        </mxCell>
        <mxCell id="Fx_bJ2mfmY8YGPZaH9oz-29" value="적의 기반 상태" style="text;strokeColor=none;fillColor=none;align=left;verticalAlign=middle;spacingLeft=4;spacingRight=4;overflow=hidden;points=[[0,0.5],[1,0.5]];portConstraint=eastwest;rotatable=0;whiteSpace=wrap;html=1;" parent="Fx_bJ2mfmY8YGPZaH9oz-28" vertex="1">
          <mxGeometry y="30" width="230" height="20" as="geometry" />
        </mxCell>
        <mxCell id="5cgWNR7Fg0BM9qmfLUpP-35" value="" style="line;strokeWidth=1;fillColor=none;align=left;verticalAlign=middle;spacingTop=-1;spacingLeft=3;spacingRight=3;rotatable=0;labelPosition=right;points=[];portConstraint=eastwest;strokeColor=inherit;" vertex="1" parent="Fx_bJ2mfmY8YGPZaH9oz-28">
          <mxGeometry y="50" width="230" height="8" as="geometry" />
        </mxCell>
        <mxCell id="5cgWNR7Fg0BM9qmfLUpP-31" value="+&amp;nbsp;&lt;b&gt;Enter&lt;/b&gt;() : override void" style="text;strokeColor=none;fillColor=none;align=left;verticalAlign=middle;spacingLeft=4;spacingRight=4;overflow=hidden;points=[[0,0.5],[1,0.5]];portConstraint=eastwest;rotatable=0;whiteSpace=wrap;html=1;" vertex="1" parent="Fx_bJ2mfmY8YGPZaH9oz-28">
          <mxGeometry y="58" width="230" height="30" as="geometry" />
        </mxCell>
        <mxCell id="Fx_bJ2mfmY8YGPZaH9oz-59" value="+&amp;nbsp;&lt;b&gt;Exit&lt;/b&gt;() : override void" style="text;strokeColor=none;fillColor=none;align=left;verticalAlign=middle;spacingLeft=4;spacingRight=4;overflow=hidden;points=[[0,0.5],[1,0.5]];portConstraint=eastwest;rotatable=0;whiteSpace=wrap;html=1;" parent="Fx_bJ2mfmY8YGPZaH9oz-28" vertex="1">
          <mxGeometry y="88" width="230" height="30" as="geometry" />
        </mxCell>
        <mxCell id="Fx_bJ2mfmY8YGPZaH9oz-60" value="+&amp;nbsp;&lt;b&gt;Tick&lt;/b&gt;(float deltatime) : override void&amp;nbsp;" style="text;strokeColor=none;fillColor=none;align=left;verticalAlign=middle;spacingLeft=4;spacingRight=4;overflow=hidden;points=[[0,0.5],[1,0.5]];portConstraint=eastwest;rotatable=0;whiteSpace=wrap;html=1;" parent="Fx_bJ2mfmY8YGPZaH9oz-28" vertex="1">
          <mxGeometry y="118" width="230" height="30" as="geometry" />
        </mxCell>
        <mxCell id="Fx_bJ2mfmY8YGPZaH9oz-32" value="&lt;font style=&quot;border-color: var(--border-color);&quot;&gt;&lt;b&gt;Player&lt;font color=&quot;#0000ff&quot;&gt;FreeLook&lt;/font&gt;State&lt;/b&gt;&lt;br&gt;&lt;/font&gt;" style="swimlane;fontStyle=0;childLayout=stackLayout;horizontal=1;startSize=30;horizontalStack=0;resizeParent=1;resizeParentMax=0;resizeLast=0;collapsible=1;marginBottom=0;whiteSpace=wrap;html=1;" parent="WIyWlLk6GJQsqaUBKTNV-1" vertex="1">
          <mxGeometry x="-60" y="330" width="290" height="248" as="geometry">
            <mxRectangle x="-60" y="330" width="160" height="30" as="alternateBounds" />
          </mxGeometry>
        </mxCell>
        <mxCell id="Fx_bJ2mfmY8YGPZaH9oz-33" value="플레이어가 자유롭게 돌아다니면서 카메라 시점을 바꿀 수 있는 상태" style="text;strokeColor=none;fillColor=none;align=left;verticalAlign=middle;spacingLeft=4;spacingRight=4;overflow=hidden;points=[[0,0.5],[1,0.5]];portConstraint=eastwest;rotatable=0;whiteSpace=wrap;html=1;" parent="Fx_bJ2mfmY8YGPZaH9oz-32" vertex="1">
          <mxGeometry y="30" width="290" height="40" as="geometry" />
        </mxCell>
        <mxCell id="5cgWNR7Fg0BM9qmfLUpP-49" value="" style="line;strokeWidth=1;fillColor=none;align=left;verticalAlign=middle;spacingTop=-1;spacingLeft=3;spacingRight=3;rotatable=0;labelPosition=right;points=[];portConstraint=eastwest;strokeColor=inherit;" vertex="1" parent="Fx_bJ2mfmY8YGPZaH9oz-32">
          <mxGeometry y="70" width="290" height="8" as="geometry" />
        </mxCell>
        <mxCell id="5cgWNR7Fg0BM9qmfLUpP-50" value="ctor &amp;gt;&amp;gt; PlayerFreeLookState(PlayerStateMachine stateMachine) : base(stateMachine)" style="text;strokeColor=none;fillColor=none;align=left;verticalAlign=middle;spacingLeft=4;spacingRight=4;overflow=hidden;points=[[0,0.5],[1,0.5]];portConstraint=eastwest;rotatable=0;whiteSpace=wrap;html=1;" vertex="1" parent="Fx_bJ2mfmY8YGPZaH9oz-32">
          <mxGeometry y="78" width="290" height="42" as="geometry" />
        </mxCell>
        <mxCell id="5cgWNR7Fg0BM9qmfLUpP-51" value="" style="line;strokeWidth=1;fillColor=none;align=left;verticalAlign=middle;spacingTop=-1;spacingLeft=3;spacingRight=3;rotatable=0;labelPosition=right;points=[];portConstraint=eastwest;strokeColor=inherit;" vertex="1" parent="Fx_bJ2mfmY8YGPZaH9oz-32">
          <mxGeometry y="120" width="290" height="8" as="geometry" />
        </mxCell>
        <mxCell id="5cgWNR7Fg0BM9qmfLUpP-52" value="+ &lt;b&gt;OnTargetPressed&lt;/b&gt;()&amp;nbsp;: void" style="text;strokeColor=none;fillColor=none;align=left;verticalAlign=middle;spacingLeft=4;spacingRight=4;overflow=hidden;points=[[0,0.5],[1,0.5]];portConstraint=eastwest;rotatable=0;whiteSpace=wrap;html=1;" vertex="1" parent="Fx_bJ2mfmY8YGPZaH9oz-32">
          <mxGeometry y="128" width="290" height="30" as="geometry" />
        </mxCell>
        <mxCell id="5cgWNR7Fg0BM9qmfLUpP-46" value="+&amp;nbsp;&lt;b&gt;Enter&lt;/b&gt;() : override void" style="text;strokeColor=none;fillColor=none;align=left;verticalAlign=middle;spacingLeft=4;spacingRight=4;overflow=hidden;points=[[0,0.5],[1,0.5]];portConstraint=eastwest;rotatable=0;whiteSpace=wrap;html=1;" vertex="1" parent="Fx_bJ2mfmY8YGPZaH9oz-32">
          <mxGeometry y="158" width="290" height="30" as="geometry" />
        </mxCell>
        <mxCell id="5cgWNR7Fg0BM9qmfLUpP-47" value="+&amp;nbsp;&lt;b&gt;Exit&lt;/b&gt;() : override void" style="text;strokeColor=none;fillColor=none;align=left;verticalAlign=middle;spacingLeft=4;spacingRight=4;overflow=hidden;points=[[0,0.5],[1,0.5]];portConstraint=eastwest;rotatable=0;whiteSpace=wrap;html=1;" vertex="1" parent="Fx_bJ2mfmY8YGPZaH9oz-32">
          <mxGeometry y="188" width="290" height="30" as="geometry" />
        </mxCell>
        <mxCell id="5cgWNR7Fg0BM9qmfLUpP-48" value="+&amp;nbsp;&lt;b&gt;Tick&lt;/b&gt;(float deltatime) : override void&amp;nbsp;" style="text;strokeColor=none;fillColor=none;align=left;verticalAlign=middle;spacingLeft=4;spacingRight=4;overflow=hidden;points=[[0,0.5],[1,0.5]];portConstraint=eastwest;rotatable=0;whiteSpace=wrap;html=1;" vertex="1" parent="Fx_bJ2mfmY8YGPZaH9oz-32">
          <mxGeometry y="218" width="290" height="30" as="geometry" />
        </mxCell>
        <mxCell id="Fx_bJ2mfmY8YGPZaH9oz-37" value="&lt;font style=&quot;border-color: var(--border-color);&quot;&gt;&lt;b&gt;&lt;font color=&quot;#cc0000&quot;&gt;PlayerStateMachine&lt;/font&gt;&lt;/b&gt;&lt;br&gt;&lt;/font&gt;" style="swimlane;fontStyle=0;childLayout=stackLayout;horizontal=1;startSize=30;horizontalStack=0;resizeParent=1;resizeParentMax=0;resizeLast=0;collapsible=1;marginBottom=0;whiteSpace=wrap;html=1;" parent="WIyWlLk6GJQsqaUBKTNV-1" vertex="1">
          <mxGeometry x="500" y="350" width="260" height="170" as="geometry" />
        </mxCell>
        <mxCell id="Fx_bJ2mfmY8YGPZaH9oz-38" value="플레이어의 (유한) 상태 기계" style="text;strokeColor=none;fillColor=none;align=left;verticalAlign=middle;spacingLeft=4;spacingRight=4;overflow=hidden;points=[[0,0.5],[1,0.5]];portConstraint=eastwest;rotatable=0;whiteSpace=wrap;html=1;" parent="Fx_bJ2mfmY8YGPZaH9oz-37" vertex="1">
          <mxGeometry y="30" width="260" height="30" as="geometry" />
        </mxCell>
        <mxCell id="5cgWNR7Fg0BM9qmfLUpP-25" value="" style="line;strokeWidth=1;fillColor=none;align=left;verticalAlign=middle;spacingTop=-1;spacingLeft=3;spacingRight=3;rotatable=0;labelPosition=right;points=[];portConstraint=eastwest;strokeColor=inherit;" vertex="1" parent="Fx_bJ2mfmY8YGPZaH9oz-37">
          <mxGeometry y="60" width="260" height="8" as="geometry" />
        </mxCell>
        <mxCell id="5cgWNR7Fg0BM9qmfLUpP-24" value="&lt;div style=&quot;&quot;&gt;+ InputReader : &lt;b&gt;PlayerInputReader&lt;/b&gt;&lt;/div&gt;" style="text;strokeColor=none;fillColor=none;align=left;verticalAlign=middle;spacingLeft=4;spacingRight=4;overflow=hidden;points=[[0,0.5],[1,0.5]];portConstraint=eastwest;rotatable=0;whiteSpace=wrap;html=1;" vertex="1" parent="Fx_bJ2mfmY8YGPZaH9oz-37">
          <mxGeometry y="68" width="260" height="32" as="geometry" />
        </mxCell>
        <mxCell id="5cgWNR7Fg0BM9qmfLUpP-28" value="" style="line;strokeWidth=1;fillColor=none;align=left;verticalAlign=middle;spacingTop=-1;spacingLeft=3;spacingRight=3;rotatable=0;labelPosition=right;points=[];portConstraint=eastwest;strokeColor=inherit;" vertex="1" parent="Fx_bJ2mfmY8YGPZaH9oz-37">
          <mxGeometry y="100" width="260" height="8" as="geometry" />
        </mxCell>
        <mxCell id="5cgWNR7Fg0BM9qmfLUpP-26" value="&lt;div style=&quot;&quot;&gt;Start()에서 실행: &lt;b&gt;SwitchState&lt;/b&gt;(new PlayerFreeLookState(this));&lt;/div&gt;&lt;div style=&quot;&quot;&gt;&lt;br&gt;&lt;/div&gt;" style="text;strokeColor=none;fillColor=none;align=left;verticalAlign=middle;spacingLeft=4;spacingRight=4;overflow=hidden;points=[[0,0.5],[1,0.5]];portConstraint=eastwest;rotatable=0;whiteSpace=wrap;html=1;" vertex="1" parent="Fx_bJ2mfmY8YGPZaH9oz-37">
          <mxGeometry y="108" width="260" height="62" as="geometry" />
        </mxCell>
        <mxCell id="5cgWNR7Fg0BM9qmfLUpP-0" value="PlayerControls" style="swimlane;fontStyle=1;align=center;verticalAlign=top;childLayout=stackLayout;horizontal=1;startSize=26;horizontalStack=0;resizeParent=1;resizeParentMax=0;resizeLast=0;collapsible=1;marginBottom=0;whiteSpace=wrap;html=1;" vertex="1" parent="WIyWlLk6GJQsqaUBKTNV-1">
          <mxGeometry x="870" y="180" width="230" height="120" as="geometry">
            <mxRectangle x="1020" y="80" width="130" height="30" as="alternateBounds" />
          </mxGeometry>
        </mxCell>
        <mxCell id="5cgWNR7Fg0BM9qmfLUpP-1" value="Create &amp;gt; &lt;b&gt;&lt;font color=&quot;#cc0000&quot;&gt;Input Action&lt;/font&gt; &lt;/b&gt;생성 후 인스펙터 창에서&amp;nbsp;Generate C# Class를 하면 자동 스크립팅이 됨" style="text;strokeColor=none;fillColor=none;align=left;verticalAlign=top;spacingLeft=4;spacingRight=4;overflow=hidden;rotatable=0;points=[[0,0.5],[1,0.5]];portConstraint=eastwest;whiteSpace=wrap;html=1;" vertex="1" parent="5cgWNR7Fg0BM9qmfLUpP-0">
          <mxGeometry y="26" width="230" height="54" as="geometry" />
        </mxCell>
        <mxCell id="5cgWNR7Fg0BM9qmfLUpP-2" value="" style="line;strokeWidth=1;fillColor=none;align=left;verticalAlign=middle;spacingTop=-1;spacingLeft=3;spacingRight=3;rotatable=0;labelPosition=right;points=[];portConstraint=eastwest;strokeColor=inherit;" vertex="1" parent="5cgWNR7Fg0BM9qmfLUpP-0">
          <mxGeometry y="80" width="230" height="8" as="geometry" />
        </mxCell>
        <mxCell id="5cgWNR7Fg0BM9qmfLUpP-9" value="Target 액션 추가 = 탭, MMB" style="text;strokeColor=none;fillColor=none;align=left;verticalAlign=top;spacingLeft=4;spacingRight=4;overflow=hidden;rotatable=0;points=[[0,0.5],[1,0.5]];portConstraint=eastwest;whiteSpace=wrap;html=1;" vertex="1" parent="5cgWNR7Fg0BM9qmfLUpP-0">
          <mxGeometry y="88" width="230" height="32" as="geometry" />
        </mxCell>
        <mxCell id="5cgWNR7Fg0BM9qmfLUpP-4" value="&lt;font style=&quot;&quot; color=&quot;#cc0000&quot;&gt;PlayerInputReader &lt;/font&gt;: MonoBehaviour, PlayerControls.IPlayerActions" style="swimlane;fontStyle=1;align=center;verticalAlign=top;childLayout=stackLayout;horizontal=1;startSize=40;horizontalStack=0;resizeParent=1;resizeParentMax=0;resizeLast=0;collapsible=1;marginBottom=0;whiteSpace=wrap;html=1;" vertex="1" parent="WIyWlLk6GJQsqaUBKTNV-1">
          <mxGeometry x="870" y="340" width="320" height="114" as="geometry">
            <mxRectangle x="1020" y="270" width="430" height="40" as="alternateBounds" />
          </mxGeometry>
        </mxCell>
        <mxCell id="5cgWNR7Fg0BM9qmfLUpP-5" value="+ TargetPressed : event Action" style="text;strokeColor=none;fillColor=none;align=left;verticalAlign=top;spacingLeft=4;spacingRight=4;overflow=hidden;rotatable=0;points=[[0,0.5],[1,0.5]];portConstraint=eastwest;whiteSpace=wrap;html=1;" vertex="1" parent="5cgWNR7Fg0BM9qmfLUpP-4">
          <mxGeometry y="40" width="320" height="20" as="geometry" />
        </mxCell>
        <mxCell id="5cgWNR7Fg0BM9qmfLUpP-58" value="+ controls : PlayerControls&amp;nbsp;" style="text;strokeColor=none;fillColor=none;align=left;verticalAlign=top;spacingLeft=4;spacingRight=4;overflow=hidden;rotatable=0;points=[[0,0.5],[1,0.5]];portConstraint=eastwest;whiteSpace=wrap;html=1;" vertex="1" parent="5cgWNR7Fg0BM9qmfLUpP-4">
          <mxGeometry y="60" width="320" height="20" as="geometry" />
        </mxCell>
        <mxCell id="5cgWNR7Fg0BM9qmfLUpP-6" value="" style="line;strokeWidth=1;fillColor=none;align=left;verticalAlign=middle;spacingTop=-1;spacingLeft=3;spacingRight=3;rotatable=0;labelPosition=right;points=[];portConstraint=eastwest;strokeColor=inherit;" vertex="1" parent="5cgWNR7Fg0BM9qmfLUpP-4">
          <mxGeometry y="80" width="320" height="8" as="geometry" />
        </mxCell>
        <mxCell id="5cgWNR7Fg0BM9qmfLUpP-7" value="+ &lt;b&gt;OnTarget&lt;/b&gt;(InputAction.CallbackContext context) : void" style="text;strokeColor=none;fillColor=none;align=left;verticalAlign=top;spacingLeft=4;spacingRight=4;overflow=hidden;rotatable=0;points=[[0,0.5],[1,0.5]];portConstraint=eastwest;whiteSpace=wrap;html=1;" vertex="1" parent="5cgWNR7Fg0BM9qmfLUpP-4">
          <mxGeometry y="88" width="320" height="26" as="geometry" />
        </mxCell>
        <mxCell id="5cgWNR7Fg0BM9qmfLUpP-10" value="" style="endArrow=block;endSize=16;endFill=0;html=1;rounded=0;exitX=0.382;exitY=0;exitDx=0;exitDy=0;exitPerimeter=0;" edge="1" parent="WIyWlLk6GJQsqaUBKTNV-1" source="5cgWNR7Fg0BM9qmfLUpP-4" target="5cgWNR7Fg0BM9qmfLUpP-0">
          <mxGeometry width="160" relative="1" as="geometry">
            <mxPoint x="730" y="370" as="sourcePoint" />
            <mxPoint x="890" y="370" as="targetPoint" />
          </mxGeometry>
        </mxCell>
        <mxCell id="5cgWNR7Fg0BM9qmfLUpP-12" value="&lt;h1&gt;키 조작&lt;/h1&gt;&lt;p&gt;2D 게임과 다르게 [ Input Action ]이라는 패키지를 따로 설치해서 사용한다. 여러 입력 기기(e.g. 콘솔)에 대응할 수 있다. 인풋 매니저는 구식임.&lt;/p&gt;" style="text;html=1;strokeColor=none;fillColor=none;spacing=5;spacingTop=-20;whiteSpace=wrap;overflow=hidden;rounded=0;" vertex="1" parent="WIyWlLk6GJQsqaUBKTNV-1">
          <mxGeometry x="870" y="40" width="230" height="120" as="geometry" />
        </mxCell>
        <mxCell id="5cgWNR7Fg0BM9qmfLUpP-13" value="&lt;font style=&quot;border-color: var(--border-color);&quot; color=&quot;#cc0000&quot;&gt;BaseStateMachine&lt;/font&gt;&lt;span style=&quot;border-color: var(--border-color);&quot;&gt;&amp;nbsp;:&amp;nbsp;&lt;/span&gt;&lt;span style=&quot;border-color: var(--border-color);&quot;&gt;MonoBehaviour&lt;/span&gt;" style="swimlane;fontStyle=1;align=center;verticalAlign=top;childLayout=stackLayout;horizontal=1;startSize=26;horizontalStack=0;resizeParent=1;resizeParentMax=0;resizeLast=0;collapsible=1;marginBottom=0;whiteSpace=wrap;html=1;" vertex="1" parent="WIyWlLk6GJQsqaUBKTNV-1">
          <mxGeometry x="320" y="90" width="360" height="190" as="geometry">
            <mxRectangle x="420" y="80" width="250" height="30" as="alternateBounds" />
          </mxGeometry>
        </mxCell>
        <mxCell id="5cgWNR7Fg0BM9qmfLUpP-14" value="상태 머신 : 플레이어나 적의 상태 정보 또는 두뇌(체력, 공격력)&lt;br&gt;&lt;br&gt;MonoBehaviour를 상속받은 이 클래스를 상속받은&lt;br style=&quot;border-color: var(--border-color);&quot;&gt;&lt;b style=&quot;border-color: var(--border-color); text-align: center;&quot;&gt;EnemyStateMachine&lt;/b&gt;과&lt;b style=&quot;border-color: var(--border-color); text-align: center;&quot;&gt;PlayerStateMachine&lt;/b&gt;만&lt;br style=&quot;border-color: var(--border-color);&quot;&gt;오브젝트 컴포넌트로 등록할 수 있다." style="text;strokeColor=none;fillColor=none;align=left;verticalAlign=top;spacingLeft=4;spacingRight=4;overflow=hidden;rotatable=0;points=[[0,0.5],[1,0.5]];portConstraint=eastwest;whiteSpace=wrap;html=1;" vertex="1" parent="5cgWNR7Fg0BM9qmfLUpP-13">
          <mxGeometry y="26" width="360" height="84" as="geometry" />
        </mxCell>
        <mxCell id="5cgWNR7Fg0BM9qmfLUpP-15" value="" style="line;strokeWidth=1;fillColor=none;align=left;verticalAlign=middle;spacingTop=-1;spacingLeft=3;spacingRight=3;rotatable=0;labelPosition=right;points=[];portConstraint=eastwest;strokeColor=inherit;" vertex="1" parent="5cgWNR7Fg0BM9qmfLUpP-13">
          <mxGeometry y="110" width="360" height="8" as="geometry" />
        </mxCell>
        <mxCell id="5cgWNR7Fg0BM9qmfLUpP-16" value="+&amp;nbsp;&lt;span style=&quot;border-color: var(--border-color); text-align: center;&quot;&gt;currentState&lt;/span&gt;&lt;span style=&quot;text-align: center;&quot;&gt;&amp;nbsp;: &lt;b&gt;State&lt;/b&gt;&lt;/span&gt;" style="text;strokeColor=none;fillColor=none;align=left;verticalAlign=top;spacingLeft=4;spacingRight=4;overflow=hidden;rotatable=0;points=[[0,0.5],[1,0.5]];portConstraint=eastwest;whiteSpace=wrap;html=1;" vertex="1" parent="5cgWNR7Fg0BM9qmfLUpP-13">
          <mxGeometry y="118" width="360" height="32" as="geometry" />
        </mxCell>
        <mxCell id="5cgWNR7Fg0BM9qmfLUpP-20" value="" style="line;strokeWidth=1;fillColor=none;align=left;verticalAlign=middle;spacingTop=-1;spacingLeft=3;spacingRight=3;rotatable=0;labelPosition=right;points=[];portConstraint=eastwest;strokeColor=inherit;" vertex="1" parent="5cgWNR7Fg0BM9qmfLUpP-13">
          <mxGeometry y="150" width="360" height="8" as="geometry" />
        </mxCell>
        <mxCell id="5cgWNR7Fg0BM9qmfLUpP-21" value="+ &lt;b style=&quot;border-color: var(--border-color); text-align: center;&quot;&gt;SwitchState&lt;/b&gt;&lt;span style=&quot;text-align: center;&quot;&gt;(State newState) : void&lt;/span&gt;" style="text;strokeColor=none;fillColor=none;align=left;verticalAlign=top;spacingLeft=4;spacingRight=4;overflow=hidden;rotatable=0;points=[[0,0.5],[1,0.5]];portConstraint=eastwest;whiteSpace=wrap;html=1;" vertex="1" parent="5cgWNR7Fg0BM9qmfLUpP-13">
          <mxGeometry y="158" width="360" height="32" as="geometry" />
        </mxCell>
        <mxCell id="5cgWNR7Fg0BM9qmfLUpP-22" value="" style="endArrow=block;endSize=16;endFill=0;html=1;rounded=0;exitX=0.435;exitY=0.017;exitDx=0;exitDy=0;exitPerimeter=0;" edge="1" parent="WIyWlLk6GJQsqaUBKTNV-1" source="Fx_bJ2mfmY8YGPZaH9oz-22" target="5cgWNR7Fg0BM9qmfLUpP-13">
          <mxGeometry width="160" relative="1" as="geometry">
            <mxPoint x="460" y="410" as="sourcePoint" />
            <mxPoint x="620" y="410" as="targetPoint" />
          </mxGeometry>
        </mxCell>
        <mxCell id="5cgWNR7Fg0BM9qmfLUpP-23" value="" style="endArrow=block;endSize=16;endFill=0;html=1;rounded=0;exitX=0.5;exitY=0;exitDx=0;exitDy=0;" edge="1" parent="WIyWlLk6GJQsqaUBKTNV-1" source="Fx_bJ2mfmY8YGPZaH9oz-37" target="5cgWNR7Fg0BM9qmfLUpP-13">
          <mxGeometry width="160" relative="1" as="geometry">
            <mxPoint x="620" y="380" as="sourcePoint" />
            <mxPoint x="780" y="380" as="targetPoint" />
          </mxGeometry>
        </mxCell>
        <mxCell id="5cgWNR7Fg0BM9qmfLUpP-36" value="&lt;font style=&quot;border-color: var(--border-color);&quot;&gt;&lt;b&gt;&lt;font color=&quot;#cc0000&quot;&gt;PlayerBaseState&lt;/font&gt;&lt;/b&gt;&lt;br&gt;&lt;/font&gt;" style="swimlane;fontStyle=0;childLayout=stackLayout;horizontal=1;startSize=30;horizontalStack=0;resizeParent=1;resizeParentMax=0;resizeLast=0;collapsible=1;marginBottom=0;whiteSpace=wrap;html=1;" vertex="1" parent="WIyWlLk6GJQsqaUBKTNV-1">
          <mxGeometry x="-480" y="350" width="340" height="234" as="geometry">
            <mxRectangle x="-480" y="350" width="130" height="30" as="alternateBounds" />
          </mxGeometry>
        </mxCell>
        <mxCell id="5cgWNR7Fg0BM9qmfLUpP-37" value="플레이어의 기반 상태" style="text;strokeColor=none;fillColor=none;align=left;verticalAlign=middle;spacingLeft=4;spacingRight=4;overflow=hidden;points=[[0,0.5],[1,0.5]];portConstraint=eastwest;rotatable=0;whiteSpace=wrap;html=1;" vertex="1" parent="5cgWNR7Fg0BM9qmfLUpP-36">
          <mxGeometry y="30" width="340" height="30" as="geometry" />
        </mxCell>
        <mxCell id="5cgWNR7Fg0BM9qmfLUpP-38" value="" style="line;strokeWidth=1;fillColor=none;align=left;verticalAlign=middle;spacingTop=-1;spacingLeft=3;spacingRight=3;rotatable=0;labelPosition=right;points=[];portConstraint=eastwest;strokeColor=inherit;" vertex="1" parent="5cgWNR7Fg0BM9qmfLUpP-36">
          <mxGeometry y="60" width="340" height="8" as="geometry" />
        </mxCell>
        <mxCell id="5cgWNR7Fg0BM9qmfLUpP-54" value="ctor &amp;gt;&amp;gt; PlayerBaseState(PlayerStateMachine stateMachine)" style="text;strokeColor=none;fillColor=none;align=left;verticalAlign=middle;spacingLeft=4;spacingRight=4;overflow=hidden;points=[[0,0.5],[1,0.5]];portConstraint=eastwest;rotatable=0;whiteSpace=wrap;html=1;" vertex="1" parent="5cgWNR7Fg0BM9qmfLUpP-36">
          <mxGeometry y="68" width="340" height="30" as="geometry" />
        </mxCell>
        <mxCell id="5cgWNR7Fg0BM9qmfLUpP-55" value="" style="line;strokeWidth=1;fillColor=none;align=left;verticalAlign=middle;spacingTop=-1;spacingLeft=3;spacingRight=3;rotatable=0;labelPosition=right;points=[];portConstraint=eastwest;strokeColor=inherit;" vertex="1" parent="5cgWNR7Fg0BM9qmfLUpP-36">
          <mxGeometry y="98" width="340" height="8" as="geometry" />
        </mxCell>
        <mxCell id="5cgWNR7Fg0BM9qmfLUpP-56" value="# stateMachine :&amp;nbsp;&lt;b&gt;PlayerStateMachine&lt;/b&gt;" style="text;strokeColor=none;fillColor=none;align=left;verticalAlign=middle;spacingLeft=4;spacingRight=4;overflow=hidden;points=[[0,0.5],[1,0.5]];portConstraint=eastwest;rotatable=0;whiteSpace=wrap;html=1;" vertex="1" parent="5cgWNR7Fg0BM9qmfLUpP-36">
          <mxGeometry y="106" width="340" height="30" as="geometry" />
        </mxCell>
        <mxCell id="5cgWNR7Fg0BM9qmfLUpP-57" value="" style="line;strokeWidth=1;fillColor=none;align=left;verticalAlign=middle;spacingTop=-1;spacingLeft=3;spacingRight=3;rotatable=0;labelPosition=right;points=[];portConstraint=eastwest;strokeColor=inherit;" vertex="1" parent="5cgWNR7Fg0BM9qmfLUpP-36">
          <mxGeometry y="136" width="340" height="8" as="geometry" />
        </mxCell>
        <mxCell id="5cgWNR7Fg0BM9qmfLUpP-40" value="+&amp;nbsp;&lt;b&gt;Enter&lt;/b&gt;() : override void" style="text;strokeColor=none;fillColor=none;align=left;verticalAlign=middle;spacingLeft=4;spacingRight=4;overflow=hidden;points=[[0,0.5],[1,0.5]];portConstraint=eastwest;rotatable=0;whiteSpace=wrap;html=1;" vertex="1" parent="5cgWNR7Fg0BM9qmfLUpP-36">
          <mxGeometry y="144" width="340" height="30" as="geometry" />
        </mxCell>
        <mxCell id="5cgWNR7Fg0BM9qmfLUpP-41" value="+&amp;nbsp;&lt;b&gt;Tick&lt;/b&gt;(float deltatime) : override void&amp;nbsp;" style="text;strokeColor=none;fillColor=none;align=left;verticalAlign=middle;spacingLeft=4;spacingRight=4;overflow=hidden;points=[[0,0.5],[1,0.5]];portConstraint=eastwest;rotatable=0;whiteSpace=wrap;html=1;" vertex="1" parent="5cgWNR7Fg0BM9qmfLUpP-36">
          <mxGeometry y="174" width="340" height="30" as="geometry" />
        </mxCell>
        <mxCell id="5cgWNR7Fg0BM9qmfLUpP-39" value="+&amp;nbsp;&lt;b&gt;Exit&lt;/b&gt;() : override void" style="text;strokeColor=none;fillColor=none;align=left;verticalAlign=middle;spacingLeft=4;spacingRight=4;overflow=hidden;points=[[0,0.5],[1,0.5]];portConstraint=eastwest;rotatable=0;whiteSpace=wrap;html=1;" vertex="1" parent="5cgWNR7Fg0BM9qmfLUpP-36">
          <mxGeometry y="204" width="340" height="30" as="geometry" />
        </mxCell>
        <mxCell id="5cgWNR7Fg0BM9qmfLUpP-42" value="" style="endArrow=block;endSize=16;endFill=0;html=1;rounded=0;exitX=0.676;exitY=-0.016;exitDx=0;exitDy=0;exitPerimeter=0;" edge="1" parent="WIyWlLk6GJQsqaUBKTNV-1" source="Fx_bJ2mfmY8YGPZaH9oz-28" target="Fx_bJ2mfmY8YGPZaH9oz-4">
          <mxGeometry width="160" relative="1" as="geometry">
            <mxPoint x="-490" y="380" as="sourcePoint" />
            <mxPoint x="-330" y="380" as="targetPoint" />
          </mxGeometry>
        </mxCell>
        <mxCell id="5cgWNR7Fg0BM9qmfLUpP-43" value="" style="endArrow=block;endSize=16;endFill=0;html=1;rounded=0;exitX=0.387;exitY=-0.016;exitDx=0;exitDy=0;exitPerimeter=0;" edge="1" parent="WIyWlLk6GJQsqaUBKTNV-1" source="5cgWNR7Fg0BM9qmfLUpP-36" target="Fx_bJ2mfmY8YGPZaH9oz-4">
          <mxGeometry width="160" relative="1" as="geometry">
            <mxPoint x="-490" y="380" as="sourcePoint" />
            <mxPoint x="-330" y="380" as="targetPoint" />
          </mxGeometry>
        </mxCell>
        <mxCell id="5cgWNR7Fg0BM9qmfLUpP-45" value="" style="endArrow=block;endSize=16;endFill=0;html=1;rounded=0;" edge="1" parent="WIyWlLk6GJQsqaUBKTNV-1" source="Fx_bJ2mfmY8YGPZaH9oz-20" target="Fx_bJ2mfmY8YGPZaH9oz-28">
          <mxGeometry width="160" relative="1" as="geometry">
            <mxPoint x="-490" y="540" as="sourcePoint" />
            <mxPoint x="-330" y="540" as="targetPoint" />
          </mxGeometry>
        </mxCell>
        <mxCell id="5cgWNR7Fg0BM9qmfLUpP-53" value="" style="endArrow=block;endSize=16;endFill=0;html=1;rounded=0;" edge="1" parent="WIyWlLk6GJQsqaUBKTNV-1" source="Fx_bJ2mfmY8YGPZaH9oz-32" target="5cgWNR7Fg0BM9qmfLUpP-36">
          <mxGeometry width="160" relative="1" as="geometry">
            <mxPoint x="-100" y="370" as="sourcePoint" />
            <mxPoint x="-140" y="370" as="targetPoint" />
          </mxGeometry>
        </mxCell>
        <mxCell id="5cgWNR7Fg0BM9qmfLUpP-59" value="1" style="endArrow=open;html=1;endSize=12;startArrow=diamondThin;startSize=14;startFill=1;edgeStyle=orthogonalEdgeStyle;align=left;verticalAlign=bottom;rounded=0;entryX=1.01;entryY=0.132;entryDx=0;entryDy=0;entryPerimeter=0;exitX=0;exitY=0.25;exitDx=0;exitDy=0;" edge="1" parent="WIyWlLk6GJQsqaUBKTNV-1" source="5cgWNR7Fg0BM9qmfLUpP-4" target="Fx_bJ2mfmY8YGPZaH9oz-37">
          <mxGeometry x="-1" y="3" relative="1" as="geometry">
            <mxPoint x="830" y="400" as="sourcePoint" />
            <mxPoint x="990" y="400" as="targetPoint" />
          </mxGeometry>
        </mxCell>
        <mxCell id="5cgWNR7Fg0BM9qmfLUpP-61" value="1" style="endArrow=open;html=1;endSize=12;startArrow=diamondThin;startSize=14;startFill=1;edgeStyle=orthogonalEdgeStyle;align=left;verticalAlign=bottom;rounded=0;entryX=0;entryY=0.5;entryDx=0;entryDy=0;" edge="1" parent="WIyWlLk6GJQsqaUBKTNV-1" source="Fx_bJ2mfmY8YGPZaH9oz-4" target="5cgWNR7Fg0BM9qmfLUpP-16">
          <mxGeometry x="-1" y="3" relative="1" as="geometry">
            <mxPoint x="-310" y="100" as="sourcePoint" />
            <mxPoint x="-150" y="100" as="targetPoint" />
          </mxGeometry>
        </mxCell>
        <mxCell id="5cgWNR7Fg0BM9qmfLUpP-62" value="&lt;h1&gt;FSM 유한상태기계&lt;/h1&gt;" style="text;html=1;strokeColor=none;fillColor=none;spacing=5;spacingTop=-20;whiteSpace=wrap;overflow=hidden;rounded=0;" vertex="1" parent="WIyWlLk6GJQsqaUBKTNV-1">
          <mxGeometry x="400" y="40" width="220" height="40" as="geometry" />
        </mxCell>
        <mxCell id="5cgWNR7Fg0BM9qmfLUpP-66" value="&lt;h1&gt;State 상태&lt;/h1&gt;&lt;p&gt;여기서는 추상화 해서 사용&lt;/p&gt;&lt;p&gt;오버라이드 기능 구현은 각각의 구체적인 상태(FreeLook, Targeting 등)에서 한다.&lt;/p&gt;" style="text;html=1;strokeColor=none;fillColor=none;spacing=5;spacingTop=-20;whiteSpace=wrap;overflow=hidden;rounded=0;" vertex="1" parent="WIyWlLk6GJQsqaUBKTNV-1">
          <mxGeometry x="-290" y="40" width="230" height="120" as="geometry" />
        </mxCell>
        <mxCell id="5cgWNR7Fg0BM9qmfLUpP-69" value="&lt;font style=&quot;border-color: var(--border-color);&quot;&gt;&lt;b style=&quot;border-color: var(--border-color);&quot;&gt;Player&lt;font color=&quot;#0000ff&quot;&gt;Targeting&lt;/font&gt;State&lt;/b&gt;&lt;br&gt;&lt;/font&gt;" style="swimlane;fontStyle=0;childLayout=stackLayout;horizontal=1;startSize=30;horizontalStack=0;resizeParent=1;resizeParentMax=0;resizeLast=0;collapsible=1;marginBottom=0;whiteSpace=wrap;html=1;" vertex="1" parent="WIyWlLk6GJQsqaUBKTNV-1">
          <mxGeometry x="-60" y="590" width="290" height="238" as="geometry">
            <mxRectangle x="-60" y="390" width="160" height="30" as="alternateBounds" />
          </mxGeometry>
        </mxCell>
        <mxCell id="5cgWNR7Fg0BM9qmfLUpP-70" value="플레이어가 적을 발견해서 주목한 상태" style="text;strokeColor=none;fillColor=none;align=left;verticalAlign=middle;spacingLeft=4;spacingRight=4;overflow=hidden;points=[[0,0.5],[1,0.5]];portConstraint=eastwest;rotatable=0;whiteSpace=wrap;html=1;" vertex="1" parent="5cgWNR7Fg0BM9qmfLUpP-69">
          <mxGeometry y="30" width="290" height="30" as="geometry" />
        </mxCell>
        <mxCell id="5cgWNR7Fg0BM9qmfLUpP-71" value="" style="line;strokeWidth=1;fillColor=none;align=left;verticalAlign=middle;spacingTop=-1;spacingLeft=3;spacingRight=3;rotatable=0;labelPosition=right;points=[];portConstraint=eastwest;strokeColor=inherit;" vertex="1" parent="5cgWNR7Fg0BM9qmfLUpP-69">
          <mxGeometry y="60" width="290" height="8" as="geometry" />
        </mxCell>
        <mxCell id="5cgWNR7Fg0BM9qmfLUpP-72" value="ctor &amp;gt;&amp;gt; PlayerTargetingState(PlayerStateMachine stateMachine) : base(stateMachine)" style="text;strokeColor=none;fillColor=none;align=left;verticalAlign=middle;spacingLeft=4;spacingRight=4;overflow=hidden;points=[[0,0.5],[1,0.5]];portConstraint=eastwest;rotatable=0;whiteSpace=wrap;html=1;" vertex="1" parent="5cgWNR7Fg0BM9qmfLUpP-69">
          <mxGeometry y="68" width="290" height="42" as="geometry" />
        </mxCell>
        <mxCell id="5cgWNR7Fg0BM9qmfLUpP-73" value="" style="line;strokeWidth=1;fillColor=none;align=left;verticalAlign=middle;spacingTop=-1;spacingLeft=3;spacingRight=3;rotatable=0;labelPosition=right;points=[];portConstraint=eastwest;strokeColor=inherit;" vertex="1" parent="5cgWNR7Fg0BM9qmfLUpP-69">
          <mxGeometry y="110" width="290" height="8" as="geometry" />
        </mxCell>
        <mxCell id="5cgWNR7Fg0BM9qmfLUpP-74" value="+ &lt;b&gt;OnTargetPressed&lt;/b&gt;()&amp;nbsp;: void" style="text;strokeColor=none;fillColor=none;align=left;verticalAlign=middle;spacingLeft=4;spacingRight=4;overflow=hidden;points=[[0,0.5],[1,0.5]];portConstraint=eastwest;rotatable=0;whiteSpace=wrap;html=1;" vertex="1" parent="5cgWNR7Fg0BM9qmfLUpP-69">
          <mxGeometry y="118" width="290" height="30" as="geometry" />
        </mxCell>
        <mxCell id="5cgWNR7Fg0BM9qmfLUpP-75" value="+&amp;nbsp;&lt;b&gt;Enter&lt;/b&gt;() : override void" style="text;strokeColor=none;fillColor=none;align=left;verticalAlign=middle;spacingLeft=4;spacingRight=4;overflow=hidden;points=[[0,0.5],[1,0.5]];portConstraint=eastwest;rotatable=0;whiteSpace=wrap;html=1;" vertex="1" parent="5cgWNR7Fg0BM9qmfLUpP-69">
          <mxGeometry y="148" width="290" height="30" as="geometry" />
        </mxCell>
        <mxCell id="5cgWNR7Fg0BM9qmfLUpP-76" value="+&amp;nbsp;&lt;b&gt;Exit&lt;/b&gt;() : override void" style="text;strokeColor=none;fillColor=none;align=left;verticalAlign=middle;spacingLeft=4;spacingRight=4;overflow=hidden;points=[[0,0.5],[1,0.5]];portConstraint=eastwest;rotatable=0;whiteSpace=wrap;html=1;" vertex="1" parent="5cgWNR7Fg0BM9qmfLUpP-69">
          <mxGeometry y="178" width="290" height="30" as="geometry" />
        </mxCell>
        <mxCell id="5cgWNR7Fg0BM9qmfLUpP-77" value="+&amp;nbsp;&lt;b&gt;Tick&lt;/b&gt;(float deltatime) : override void&amp;nbsp;" style="text;strokeColor=none;fillColor=none;align=left;verticalAlign=middle;spacingLeft=4;spacingRight=4;overflow=hidden;points=[[0,0.5],[1,0.5]];portConstraint=eastwest;rotatable=0;whiteSpace=wrap;html=1;" vertex="1" parent="5cgWNR7Fg0BM9qmfLUpP-69">
          <mxGeometry y="208" width="290" height="30" as="geometry" />
        </mxCell>
        <mxCell id="5cgWNR7Fg0BM9qmfLUpP-78" value="" style="endArrow=block;endSize=16;endFill=0;html=1;rounded=0;" edge="1" parent="WIyWlLk6GJQsqaUBKTNV-1" source="5cgWNR7Fg0BM9qmfLUpP-69" target="5cgWNR7Fg0BM9qmfLUpP-36">
          <mxGeometry width="160" relative="1" as="geometry">
            <mxPoint x="-60" y="550" as="sourcePoint" />
            <mxPoint x="100" y="550" as="targetPoint" />
          </mxGeometry>
        </mxCell>
        <mxCell id="5cgWNR7Fg0BM9qmfLUpP-80" value="1" style="endArrow=open;html=1;endSize=12;startArrow=diamondThin;startSize=14;startFill=0;edgeStyle=orthogonalEdgeStyle;align=left;verticalAlign=bottom;rounded=0;" edge="1" parent="WIyWlLk6GJQsqaUBKTNV-1" source="Fx_bJ2mfmY8YGPZaH9oz-37" target="5cgWNR7Fg0BM9qmfLUpP-36">
          <mxGeometry x="-1" y="3" relative="1" as="geometry">
            <mxPoint x="100" y="490" as="sourcePoint" />
            <mxPoint x="260" y="490" as="targetPoint" />
            <Array as="points">
              <mxPoint x="630" y="860" />
              <mxPoint x="-310" y="860" />
            </Array>
          </mxGeometry>
        </mxCell>
      </root>
    </mxGraphModel>
  </diagram>
</mxfile>
